<svg width="595" height="971" viewBox="0 0 595 971" fill="none" xmlns="http://www.w3.org/2000/svg">
<path d="M0 36.4052H594.424V525.073H0V36.4052Z" fill="#D0E9FF"/>
<path d="M594.424 38.5055C594.424 17.2396 577.791 0.000183105 557.272 0.000183105C536.754 0.000183105 520.121 17.2396 520.121 38.5055C520.121 59.7714 536.754 77.0108 557.272 77.0108C577.791 77.0108 594.424 59.7714 594.424 38.5055Z" fill="#D0E9FF"/>
<path d="M445.818 38.5055C445.818 17.2396 429.185 0.000183105 408.666 0.000183105C388.148 0.000183105 371.515 17.2396 371.515 38.5055C371.515 59.7714 388.148 77.0108 408.666 77.0108C429.185 77.0108 445.818 59.7714 445.818 38.5055Z" fill="#D0E9FF"/>
<path d="M297.212 38.5055C297.212 17.2396 280.579 0.000183105 260.06 0.000183105C239.542 0.000183105 222.909 17.2396 222.909 38.5055C222.909 59.7714 239.542 77.0108 260.06 77.0108C280.579 77.0108 297.212 59.7714 297.212 38.5055Z" fill="#D0E9FF"/>
<path d="M148.606 38.5055C148.606 17.2396 131.973 0.000183105 111.454 0.000183105C90.9363 0.000183105 74.303 17.2396 74.303 38.5055C74.303 59.7714 90.9363 77.0108 111.454 77.0108C131.973 77.0108 148.606 59.7714 148.606 38.5055Z" fill="#D0E9FF"/>
<path d="M520.121 38.5055C520.121 17.2396 503.488 0.000183105 482.969 0.000183105C462.451 0.000183105 445.818 17.2396 445.818 38.5055C445.818 59.7714 462.451 77.0108 482.969 77.0108C503.488 77.0108 520.121 59.7714 520.121 38.5055Z" fill="#D0E9FF"/>
<path d="M371.515 38.5055C371.515 17.2396 354.882 0.000183105 334.363 0.000183105C313.845 0.000183105 297.212 17.2396 297.212 38.5055C297.212 59.7714 313.845 77.0108 334.363 77.0108C354.882 77.0108 371.515 59.7714 371.515 38.5055Z" fill="#D0E9FF"/>
<path d="M222.909 38.5055C222.909 17.2396 206.276 0.000183105 185.757 0.000183105C165.239 0.000183105 148.606 17.2396 148.606 38.5055C148.606 59.7714 165.239 77.0108 185.757 77.0108C206.276 77.0108 222.909 59.7714 222.909 38.5055Z" fill="#D0E9FF"/>
<path d="M74.303 38.5055C74.303 17.2396 57.6697 0.000183105 37.1515 0.000183105C16.6333 0.000183105 0 17.2396 0 38.5055C0 59.7714 16.6333 77.0108 37.1515 77.0108C57.6697 77.0108 74.303 59.7714 74.303 38.5055Z" fill="#D0E9FF"/>
<path d="M0 46.5239C0 39.7566 5.48594 34.2708 12.2532 34.2708H582.747C589.514 34.2708 595 39.7567 595 46.524V944.285C595 959.039 583.039 971 568.284 971H26.7157C11.9611 971 0 959.039 0 944.285V46.5239Z" fill="#D0E9FF"/>
</svg>
