<svg width="2992" height="1983" viewBox="0 0 2992 1983" fill="none" xmlns="http://www.w3.org/2000/svg">
<path d="M1996.41 94.6381H0.00012207V892.137H1996.41V94.6381Z" fill="#308754"/>
<path d="M0.00012207 99.5212C0.00012207 50.0787 55.8641 9.99768 124.776 9.99768C193.688 9.99768 249.551 50.0787 249.551 99.5212C249.551 148.964 193.688 189.045 124.776 189.045C55.8641 189.045 0.00012207 148.964 0.00012207 99.5212Z" fill="#308754"/>
<path d="M499.102 99.5212C499.102 50.0787 554.966 9.99768 623.878 9.99768C692.79 9.99768 748.653 50.0787 748.653 99.5212C748.653 148.964 692.79 189.045 623.878 189.045C554.966 189.045 499.102 148.964 499.102 99.5212Z" fill="#308754"/>
<path d="M998.204 99.5212C998.204 50.0787 1054.07 9.99768 1122.98 9.99768C1191.89 9.99768 1247.76 50.0787 1247.76 99.5212C1247.76 148.964 1191.89 189.045 1122.98 189.045C1054.07 189.045 998.204 148.964 998.204 99.5212Z" fill="#308754"/>
<path d="M1497.31 99.5212C1497.31 50.0787 1553.17 9.99768 1622.08 9.99768C1690.99 9.99768 1746.86 50.0787 1746.86 99.5212C1746.86 148.964 1690.99 189.045 1622.08 189.045C1553.17 189.045 1497.31 148.964 1497.31 99.5212Z" fill="#308754"/>
<path d="M249.551 99.5212C249.551 50.0787 305.415 9.99768 374.327 9.99768C443.238 9.99768 499.102 50.0787 499.102 99.5212C499.102 148.964 443.238 189.045 374.327 189.045C305.415 189.045 249.551 148.964 249.551 99.5212Z" fill="#308754"/>
<path d="M748.653 99.5212C748.653 50.0787 804.517 9.99768 873.429 9.99768C942.341 9.99768 998.204 50.0787 998.204 99.5212C998.204 148.964 942.341 189.045 873.429 189.045C804.517 189.045 748.653 148.964 748.653 99.5212Z" fill="#308754"/>
<path d="M1247.76 99.5212C1247.76 50.0787 1303.62 9.99768 1372.53 9.99768C1441.44 9.99768 1497.31 50.0787 1497.31 99.5212C1497.31 148.964 1441.44 189.045 1372.53 189.045C1303.62 189.045 1247.76 148.964 1247.76 99.5212Z" fill="#308754"/>
<path d="M1746.86 99.5212C1746.86 50.0787 1802.72 9.99768 1871.63 9.99768C1940.54 9.99768 1996.41 50.0787 1996.41 99.5212C1996.41 148.964 1940.54 189.045 1871.63 189.045C1802.72 189.045 1746.86 148.964 1746.86 99.5212Z" fill="#308754"/>
<path d="M1996.41 1898.36H0V743.393H1996.41V1898.36Z" fill="#308754"/>
<path d="M0 1893.48C0 1942.92 55.8641 1983 124.776 1983C193.687 1983 249.551 1942.92 249.551 1893.48C249.551 1844.03 193.687 1803.95 124.776 1803.95C55.8641 1803.95 0 1844.03 0 1893.48Z" fill="#308754"/>
<path d="M499.102 1893.48C499.102 1942.92 554.966 1983 623.878 1983C692.79 1983 748.653 1942.92 748.653 1893.48C748.653 1844.03 692.79 1803.95 623.878 1803.95C554.966 1803.95 499.102 1844.03 499.102 1893.48Z" fill="#308754"/>
<path d="M998.204 1893.48C998.204 1942.92 1054.07 1983 1122.98 1983C1191.89 1983 1247.76 1942.92 1247.76 1893.48C1247.76 1844.03 1191.89 1803.95 1122.98 1803.95C1054.07 1803.95 998.204 1844.03 998.204 1893.48Z" fill="#308754"/>
<path d="M1497.31 1893.48C1497.31 1942.92 1553.17 1983 1622.08 1983C1690.99 1983 1746.86 1942.92 1746.86 1893.48C1746.86 1844.03 1690.99 1803.95 1622.08 1803.95C1553.17 1803.95 1497.31 1844.03 1497.31 1893.48Z" fill="#308754"/>
<path d="M249.551 1893.48C249.551 1942.92 305.415 1983 374.327 1983C443.238 1983 499.102 1942.92 499.102 1893.48C499.102 1844.03 443.238 1803.95 374.327 1803.95C305.415 1803.95 249.551 1844.03 249.551 1893.48Z" fill="#308754"/>
<path d="M748.653 1893.48C748.653 1942.92 804.517 1983 873.429 1983C942.341 1983 998.204 1942.92 998.204 1893.48C998.204 1844.03 942.341 1803.95 873.429 1803.95C804.517 1803.95 748.653 1844.03 748.653 1893.48Z" fill="#308754"/>
<path d="M1247.76 1893.48C1247.76 1942.92 1303.62 1983 1372.53 1983C1441.44 1983 1497.31 1942.92 1497.31 1893.48C1497.31 1844.03 1441.44 1803.95 1372.53 1803.95C1303.62 1803.95 1247.76 1844.03 1247.76 1893.48Z" fill="#308754"/>
<path d="M1746.86 1893.48C1746.86 1942.92 1802.72 1983 1871.63 1983C1940.54 1983 1996.41 1942.92 1996.41 1893.48C1996.41 1844.03 1940.54 1803.95 1871.63 1803.95C1802.72 1803.95 1746.86 1844.03 1746.86 1893.48Z" fill="#308754"/>
<path d="M2491.29 84.6404H494.877V731.453H2491.29V84.6404Z" fill="#308754"/>
<path d="M494.877 89.5235C494.877 40.081 550.741 -6.10352e-05 619.653 -6.10352e-05C688.565 -6.10352e-05 744.428 40.081 744.428 89.5235C744.428 138.966 688.565 179.047 619.653 179.047C550.741 179.047 494.877 138.966 494.877 89.5235Z" fill="#308754"/>
<path d="M993.98 89.5235C993.98 40.081 1049.84 -6.10352e-05 1118.76 -6.10352e-05C1187.67 -6.10352e-05 1243.53 40.081 1243.53 89.5235C1243.53 138.966 1187.67 179.047 1118.76 179.047C1049.84 179.047 993.98 138.966 993.98 89.5235Z" fill="#308754"/>
<path d="M1493.08 89.5235C1493.08 40.081 1548.95 -6.10352e-05 1617.86 -6.10352e-05C1686.77 -6.10352e-05 1742.63 40.081 1742.63 89.5235C1742.63 138.966 1686.77 179.047 1617.86 179.047C1548.95 179.047 1493.08 138.966 1493.08 89.5235Z" fill="#308754"/>
<path d="M1992.18 89.5235C1992.18 40.081 2048.05 -6.10352e-05 2116.96 -6.10352e-05C2185.87 -6.10352e-05 2241.73 40.081 2241.73 89.5235C2241.73 138.966 2185.87 179.047 2116.96 179.047C2048.05 179.047 1992.18 138.966 1992.18 89.5235Z" fill="#308754"/>
<path d="M744.428 89.5235C744.428 40.081 800.292 -6.10352e-05 869.204 -6.10352e-05C938.116 -6.10352e-05 993.98 40.081 993.98 89.5235C993.98 138.966 938.116 179.047 869.204 179.047C800.292 179.047 744.428 138.966 744.428 89.5235Z" fill="#308754"/>
<path d="M1243.53 89.5235C1243.53 40.081 1299.39 -6.10352e-05 1368.31 -6.10352e-05C1437.22 -6.10352e-05 1493.08 40.081 1493.08 89.5235C1493.08 138.966 1437.22 179.047 1368.31 179.047C1299.39 179.047 1243.53 138.966 1243.53 89.5235Z" fill="#308754"/>
<path d="M1742.63 89.5235C1742.63 40.081 1798.5 -6.10352e-05 1867.41 -6.10352e-05C1936.32 -6.10352e-05 1992.18 40.081 1992.18 89.5235C1992.18 138.966 1936.32 179.047 1867.41 179.047C1798.5 179.047 1742.63 138.966 1742.63 89.5235Z" fill="#308754"/>
<path d="M2241.73 89.5235C2241.73 40.081 2297.6 -6.10352e-05 2366.51 -6.10352e-05C2435.42 -6.10352e-05 2491.29 40.081 2491.29 89.5235C2491.29 138.966 2435.42 179.047 2366.51 179.047C2297.6 179.047 2241.73 138.966 2241.73 89.5235Z" fill="#308754"/>
<path d="M2491.29 1834.08H494.877L494.877 520.994H2491.29V1834.08Z" fill="#308754"/>
<path d="M494.877 1829.2C494.877 1878.64 550.741 1918.72 619.653 1918.72C688.565 1918.72 744.429 1878.64 744.429 1829.2C744.429 1779.76 688.565 1739.67 619.653 1739.67C550.741 1739.67 494.877 1779.76 494.877 1829.2Z" fill="#308754"/>
<path d="M993.98 1829.2C993.98 1878.64 1049.84 1918.72 1118.76 1918.72C1187.67 1918.72 1243.53 1878.64 1243.53 1829.2C1243.53 1779.76 1187.67 1739.67 1118.76 1739.67C1049.84 1739.67 993.98 1779.76 993.98 1829.2Z" fill="#308754"/>
<path d="M1493.08 1829.2C1493.08 1878.64 1548.95 1918.72 1617.86 1918.72C1686.77 1918.72 1742.63 1878.64 1742.63 1829.2C1742.63 1779.76 1686.77 1739.67 1617.86 1739.67C1548.95 1739.67 1493.08 1779.76 1493.08 1829.2Z" fill="#308754"/>
<path d="M1992.18 1829.2C1992.18 1878.64 2048.05 1918.72 2116.96 1918.72C2185.87 1918.72 2241.73 1878.64 2241.73 1829.2C2241.73 1779.76 2185.87 1739.67 2116.96 1739.67C2048.05 1739.67 1992.18 1779.76 1992.18 1829.2Z" fill="#308754"/>
<path d="M744.429 1829.2C744.429 1878.64 800.292 1918.72 869.204 1918.72C938.116 1918.72 993.98 1878.64 993.98 1829.2C993.98 1779.76 938.116 1739.67 869.204 1739.67C800.292 1739.67 744.429 1779.76 744.429 1829.2Z" fill="#308754"/>
<path d="M1243.53 1829.2C1243.53 1878.64 1299.39 1918.72 1368.31 1918.72C1437.22 1918.72 1493.08 1878.64 1493.08 1829.2C1493.08 1779.76 1437.22 1739.67 1368.31 1739.67C1299.39 1739.67 1243.53 1779.76 1243.53 1829.2Z" fill="#308754"/>
<path d="M1742.63 1829.2C1742.63 1878.64 1798.5 1918.72 1867.41 1918.72C1936.32 1918.72 1992.18 1878.64 1992.18 1829.2C1992.18 1779.76 1936.32 1739.67 1867.41 1739.67C1798.5 1739.67 1742.63 1779.76 1742.63 1829.2Z" fill="#308754"/>
<path d="M2241.73 1829.2C2241.73 1878.64 2297.6 1918.72 2366.51 1918.72C2435.42 1918.72 2491.29 1878.64 2491.29 1829.2C2491.29 1779.76 2435.42 1739.67 2366.51 1739.67C2297.6 1739.67 2241.73 1779.76 2241.73 1829.2Z" fill="#308754"/>
<path d="M2991.03 94.6404H994.626V741.453H2991.03V94.6404Z" fill="#308754"/>
<path d="M994.626 99.5235C994.626 50.081 1050.49 9.99994 1119.4 9.99994C1188.31 9.99994 1244.18 50.081 1244.18 99.5235C1244.18 148.966 1188.31 189.047 1119.4 189.047C1050.49 189.047 994.626 148.966 994.626 99.5235Z" fill="#308754"/>
<path d="M1493.73 99.5235C1493.73 50.081 1549.59 9.99994 1618.5 9.99994C1687.42 9.99994 1743.28 50.081 1743.28 99.5235C1743.28 148.966 1687.42 189.047 1618.5 189.047C1549.59 189.047 1493.73 148.966 1493.73 99.5235Z" fill="#308754"/>
<path d="M1992.83 99.5235C1992.83 50.081 2048.69 9.99994 2117.61 9.99994C2186.52 9.99994 2242.38 50.081 2242.38 99.5235C2242.38 148.966 2186.52 189.047 2117.61 189.047C2048.69 189.047 1992.83 148.966 1992.83 99.5235Z" fill="#308754"/>
<path d="M2491.93 99.5235C2491.93 50.081 2547.8 9.99994 2616.71 9.99994C2685.62 9.99994 2741.48 50.081 2741.48 99.5235C2741.48 148.966 2685.62 189.047 2616.71 189.047C2547.8 189.047 2491.93 148.966 2491.93 99.5235Z" fill="#308754"/>
<path d="M1244.18 99.5235C1244.18 50.081 1300.04 9.99994 1368.95 9.99994C1437.86 9.99994 1493.73 50.081 1493.73 99.5235C1493.73 148.966 1437.86 189.047 1368.95 189.047C1300.04 189.047 1244.18 148.966 1244.18 99.5235Z" fill="#308754"/>
<path d="M1743.28 99.5235C1743.28 50.081 1799.14 9.99994 1868.05 9.99994C1936.97 9.99994 1992.83 50.081 1992.83 99.5235C1992.83 148.966 1936.97 189.047 1868.05 189.047C1799.14 189.047 1743.28 148.966 1743.28 99.5235Z" fill="#308754"/>
<path d="M2242.38 99.5235C2242.38 50.081 2298.25 9.99994 2367.16 9.99994C2436.07 9.99994 2491.93 50.081 2491.93 99.5235C2491.93 148.966 2436.07 189.047 2367.16 189.047C2298.25 189.047 2242.38 148.966 2242.38 99.5235Z" fill="#308754"/>
<path d="M2741.48 99.5235C2741.48 50.081 2797.35 9.99994 2866.26 9.99994C2935.17 9.99994 2991.03 50.081 2991.03 99.5235C2991.03 148.966 2935.17 189.047 2866.26 189.047C2797.35 189.047 2741.48 148.966 2741.48 99.5235Z" fill="#308754"/>
<path d="M2991.03 1898.36H994.626V503.197H2991.03V1898.36Z" fill="#308754"/>
<path d="M994.626 1893.48C994.626 1942.92 1050.49 1983 1119.4 1983C1188.31 1983 1244.18 1942.92 1244.18 1893.48C1244.18 1844.04 1188.31 1803.95 1119.4 1803.95C1050.49 1803.95 994.626 1844.04 994.626 1893.48Z" fill="#308754"/>
<path d="M1493.73 1893.48C1493.73 1942.92 1549.59 1983 1618.5 1983C1687.42 1983 1743.28 1942.92 1743.28 1893.48C1743.28 1844.04 1687.42 1803.95 1618.5 1803.95C1549.59 1803.95 1493.73 1844.04 1493.73 1893.48Z" fill="#308754"/>
<path d="M1992.83 1893.48C1992.83 1942.92 2048.69 1983 2117.61 1983C2186.52 1983 2242.38 1942.92 2242.38 1893.48C2242.38 1844.04 2186.52 1803.95 2117.61 1803.95C2048.69 1803.95 1992.83 1844.04 1992.83 1893.48Z" fill="#308754"/>
<path d="M2491.93 1893.48C2491.93 1942.92 2547.8 1983 2616.71 1983C2685.62 1983 2741.48 1942.92 2741.48 1893.48C2741.48 1844.04 2685.62 1803.95 2616.71 1803.95C2547.8 1803.95 2491.93 1844.04 2491.93 1893.48Z" fill="#308754"/>
<path d="M1244.18 1893.48C1244.18 1942.92 1300.04 1983 1368.95 1983C1437.86 1983 1493.73 1942.92 1493.73 1893.48C1493.73 1844.04 1437.86 1803.95 1368.95 1803.95C1300.04 1803.95 1244.18 1844.04 1244.18 1893.48Z" fill="#308754"/>
<path d="M1743.28 1893.48C1743.28 1942.92 1799.14 1983 1868.05 1983C1936.97 1983 1992.83 1942.92 1992.83 1893.48C1992.83 1844.04 1936.97 1803.95 1868.05 1803.95C1799.14 1803.95 1743.28 1844.04 1743.28 1893.48Z" fill="#308754"/>
<path d="M2242.38 1893.48C2242.38 1942.92 2298.25 1983 2367.16 1983C2436.07 1983 2491.93 1942.92 2491.93 1893.48C2491.93 1844.04 2436.07 1803.95 2367.16 1803.95C2298.25 1803.95 2242.38 1844.04 2242.38 1893.48Z" fill="#308754"/>
<path d="M2741.48 1893.48C2741.48 1942.92 2797.35 1983 2866.26 1983C2935.17 1983 2991.03 1942.92 2991.03 1893.48C2991.03 1844.04 2935.17 1803.95 2866.26 1803.95C2797.35 1803.95 2741.48 1844.04 2741.48 1893.48Z" fill="#308754"/>
</svg>
