<svg width="648" height="669" viewBox="0 0 648 669" fill="none" xmlns="http://www.w3.org/2000/svg">
<path d="M0 636.416H648V210.001H0V636.416Z" fill="#308754"/>
<path d="M648 634.583C648 653.14 629.868 668.183 607.5 668.183C585.133 668.183 567 653.14 567 634.583C567 616.026 585.133 600.983 607.5 600.983C629.868 600.983 648 616.026 648 634.583Z" fill="#308754"/>
<path d="M486 634.583C486 653.14 467.868 668.183 445.5 668.183C423.132 668.183 405 653.14 405 634.583C405 616.026 423.132 600.983 445.5 600.983C467.868 600.983 486 616.026 486 634.583Z" fill="#308754"/>
<path d="M324 634.583C324 653.14 305.868 668.183 283.5 668.183C261.132 668.183 243 653.14 243 634.583C243 616.026 261.132 600.983 283.5 600.983C305.868 600.983 324 616.026 324 634.583Z" fill="#308754"/>
<path d="M162 634.583C162 653.14 143.868 668.183 121.5 668.183C99.1325 668.183 81 653.14 81 634.583C81 616.026 99.1325 600.983 121.5 600.983C143.868 600.983 162 616.026 162 634.583Z" fill="#308754"/>
<path d="M567 634.583C567 653.14 548.868 668.183 526.5 668.183C504.132 668.183 486 653.14 486 634.583C486 616.026 504.132 600.983 526.5 600.983C548.868 600.983 567 616.026 567 634.583Z" fill="#308754"/>
<path d="M405 634.583C405 653.14 386.868 668.183 364.5 668.183C342.132 668.183 324 653.14 324 634.583C324 616.026 342.132 600.983 364.5 600.983C386.868 600.983 405 616.026 405 634.583Z" fill="#308754"/>
<path d="M243 634.583C243 653.14 224.868 668.183 202.5 668.183C180.132 668.183 162 653.14 162 634.583C162 616.026 180.132 600.983 202.5 600.983C224.868 600.983 243 616.026 243 634.583Z" fill="#308754"/>
<path d="M81 634.583C81 653.14 62.8675 668.183 40.5 668.183C18.1325 668.183 0 653.14 0 634.583C0 616.026 18.1325 600.983 40.5 600.983C62.8675 600.983 81 616.026 81 634.583Z" fill="#308754"/>
<path d="M0 31.7671H648V458.182H0V31.7671Z" fill="#308754"/>
<path d="M648 33.5998C648 15.043 629.868 -0.000183105 607.5 -0.000183105C585.133 -0.000183105 567 15.043 567 33.5998C567 52.1566 585.133 67.1998 607.5 67.1998C629.868 67.1998 648 52.1566 648 33.5998Z" fill="#308754"/>
<path d="M486 33.5998C486 15.043 467.868 -0.000183105 445.5 -0.000183105C423.132 -0.000183105 405 15.043 405 33.5998C405 52.1566 423.132 67.1998 445.5 67.1998C467.868 67.1998 486 52.1566 486 33.5998Z" fill="#308754"/>
<path d="M324 33.5998C324 15.043 305.868 -0.000183105 283.5 -0.000183105C261.132 -0.000183105 243 15.043 243 33.5998C243 52.1566 261.132 67.1998 283.5 67.1998C305.868 67.1998 324 52.1566 324 33.5998Z" fill="#308754"/>
<path d="M162 33.5998C162 15.043 143.868 -0.000183105 121.5 -0.000183105C99.1325 -0.000183105 81 15.043 81 33.5998C81 52.1566 99.1325 67.1998 121.5 67.1998C143.868 67.1998 162 52.1566 162 33.5998Z" fill="#308754"/>
<path d="M567 33.5998C567 15.043 548.868 -0.000183105 526.5 -0.000183105C504.132 -0.000183105 486 15.043 486 33.5998C486 52.1566 504.132 67.1998 526.5 67.1998C548.868 67.1998 567 52.1566 567 33.5998Z" fill="#308754"/>
<path d="M405 33.5998C405 15.043 386.868 -0.000183105 364.5 -0.000183105C342.132 -0.000183105 324 15.043 324 33.5998C324 52.1566 342.132 67.1998 364.5 67.1998C386.868 67.1998 405 52.1566 405 33.5998Z" fill="#308754"/>
<path d="M243 33.5998C243 15.043 224.868 -0.000183105 202.5 -0.000183105C180.132 -0.000183105 162 15.043 162 33.5998C162 52.1566 180.132 67.1998 202.5 67.1998C224.868 67.1998 243 52.1566 243 33.5998Z" fill="#308754"/>
<path d="M81 33.5998C81 15.043 62.8675 -0.000183105 40.5 -0.000183105C18.1325 -0.000183105 0 15.043 0 33.5998C0 52.1566 18.1325 67.1998 40.5 67.1998C62.8675 67.1998 81 52.1566 81 33.5998Z" fill="#308754"/>
</svg>
