<svg width="595" height="1427" viewBox="0 0 595 1427" fill="none" xmlns="http://www.w3.org/2000/svg">
<path d="M0 1397.88H594V1007H0V1397.88Z" fill="#B6FF98"/>
<path d="M594 1396.2C594 1413.21 577.379 1427 556.875 1427C536.371 1427 519.75 1413.21 519.75 1396.2C519.75 1379.19 536.371 1365.4 556.875 1365.4C577.379 1365.4 594 1379.19 594 1396.2Z" fill="#B6FF98"/>
<path d="M445.5 1396.2C445.5 1413.21 428.879 1427 408.375 1427C387.871 1427 371.25 1413.21 371.25 1396.2C371.25 1379.19 387.871 1365.4 408.375 1365.4C428.879 1365.4 445.5 1379.19 445.5 1396.2Z" fill="#B6FF98"/>
<path d="M297 1396.2C297 1413.21 280.379 1427 259.875 1427C239.371 1427 222.75 1413.21 222.75 1396.2C222.75 1379.19 239.371 1365.4 259.875 1365.4C280.379 1365.4 297 1379.19 297 1396.2Z" fill="#B6FF98"/>
<path d="M148.5 1396.2C148.5 1413.21 131.879 1427 111.375 1427C90.8714 1427 74.25 1413.21 74.25 1396.2C74.25 1379.19 90.8714 1365.4 111.375 1365.4C131.879 1365.4 148.5 1379.19 148.5 1396.2Z" fill="#B6FF98"/>
<path d="M519.75 1396.2C519.75 1413.21 503.129 1427 482.625 1427C462.121 1427 445.5 1413.21 445.5 1396.2C445.5 1379.19 462.121 1365.4 482.625 1365.4C503.129 1365.4 519.75 1379.19 519.75 1396.2Z" fill="#B6FF98"/>
<path d="M371.25 1396.2C371.25 1413.21 354.629 1427 334.125 1427C313.621 1427 297 1413.21 297 1396.2C297 1379.19 313.621 1365.4 334.125 1365.4C354.629 1365.4 371.25 1379.19 371.25 1396.2Z" fill="#B6FF98"/>
<path d="M222.75 1396.2C222.75 1413.21 206.129 1427 185.625 1427C165.121 1427 148.5 1413.21 148.5 1396.2C148.5 1379.19 165.121 1365.4 185.625 1365.4C206.129 1365.4 222.75 1379.19 222.75 1396.2Z" fill="#B6FF98"/>
<path d="M74.25 1396.2C74.25 1413.21 57.6286 1427 37.125 1427C16.6214 1427 0 1413.21 0 1396.2C0 1379.19 16.6214 1365.4 37.125 1365.4C57.6286 1365.4 74.25 1379.19 74.25 1396.2Z" fill="#B6FF98"/>
<path d="M0 29.12H594V420H0V29.12Z" fill="#B6FF98"/>
<path d="M594 30.8C594 13.7896 577.379 0 556.875 0C536.371 0 519.75 13.7896 519.75 30.8C519.75 47.8104 536.371 61.6 556.875 61.6C577.379 61.6 594 47.8104 594 30.8Z" fill="#B6FF98"/>
<path d="M445.5 30.8C445.5 13.7896 428.879 0 408.375 0C387.871 0 371.25 13.7896 371.25 30.8C371.25 47.8104 387.871 61.6 408.375 61.6C428.879 61.6 445.5 47.8104 445.5 30.8Z" fill="#B6FF98"/>
<path d="M297 30.8C297 13.7896 280.379 0 259.875 0C239.371 0 222.75 13.7896 222.75 30.8C222.75 47.8104 239.371 61.6 259.875 61.6C280.379 61.6 297 47.8104 297 30.8Z" fill="#B6FF98"/>
<path d="M148.5 30.8C148.5 13.7896 131.879 0 111.375 0C90.8714 0 74.25 13.7896 74.25 30.8C74.25 47.8104 90.8714 61.6 111.375 61.6C131.879 61.6 148.5 47.8104 148.5 30.8Z" fill="#B6FF98"/>
<path d="M519.75 30.8C519.75 13.7896 503.129 0 482.625 0C462.121 0 445.5 13.7896 445.5 30.8C445.5 47.8104 462.121 61.6 482.625 61.6C503.129 61.6 519.75 47.8104 519.75 30.8Z" fill="#B6FF98"/>
<path d="M371.25 30.8C371.25 13.7896 354.629 0 334.125 0C313.621 0 297 13.7896 297 30.8C297 47.8104 313.621 61.6 334.125 61.6C354.629 61.6 371.25 47.8104 371.25 30.8Z" fill="#B6FF98"/>
<path d="M222.75 30.8C222.75 13.7896 206.129 0 185.625 0C165.121 0 148.5 13.7896 148.5 30.8C148.5 47.8104 165.121 61.6 185.625 61.6C206.129 61.6 222.75 47.8104 222.75 30.8Z" fill="#B6FF98"/>
<path d="M74.25 30.8C74.25 13.7896 57.6286 0 37.125 0C16.6214 0 0 13.7896 0 30.8C0 47.8104 16.6214 61.6 37.125 61.6C57.6286 61.6 74.25 47.8104 74.25 30.8Z" fill="#B6FF98"/>
<path d="M0 1103.75C0 1110.51 5.48594 1116 12.2532 1116H582.747C589.514 1116 595 1110.51 595 1103.75V54.7157C595 39.9611 583.039 28 568.284 28H26.7157C11.9611 28 0 39.9611 0 54.7157V1103.75Z" fill="#B6FF98"/>
</svg>
