<svg width="1003" height="1736" viewBox="0 0 1003 1736" fill="none" xmlns="http://www.w3.org/2000/svg">
<path d="M0.00012587 68.3864C0.000128721 30.6176 30.6177 0 68.3865 0H934.614C972.382 0 1003 30.6176 1003 68.3864L1003 1667.61C1003 1705.38 972.382 1736 934.614 1736H68.3864C30.6176 1736 2.311e-06 1705.38 5.16176e-06 1667.61L0.00012587 68.3864Z" fill="#F7BBD7"/>
<path d="M966.527 1647.32C606.879 1647.32 405.239 1647.32 45.5908 1647.32V1177.76H966.527V1647.32Z" fill="#FFFBEC"/>
<path d="M45.5908 1645.31C45.5908 1665.74 71.3607 1682.3 103.149 1682.3C134.938 1682.3 160.708 1665.74 160.708 1645.31C160.708 1624.87 134.938 1608.31 103.149 1608.31C71.3607 1608.31 45.5908 1624.87 45.5908 1645.31Z" fill="#FFFBEC"/>
<path d="M275.825 1645.31C275.825 1665.74 301.595 1682.3 333.383 1682.3C365.172 1682.3 390.942 1665.74 390.942 1645.31C390.942 1624.87 365.172 1608.31 333.383 1608.31C301.595 1608.31 275.825 1624.87 275.825 1645.31Z" fill="#FFFBEC"/>
<path d="M506.059 1645.31C506.059 1665.74 531.829 1682.3 563.617 1682.3C595.406 1682.3 621.176 1665.74 621.176 1645.31C621.176 1624.87 595.406 1608.31 563.617 1608.31C531.829 1608.31 506.059 1624.87 506.059 1645.31Z" fill="#FFFBEC"/>
<path d="M736.293 1645.31C736.293 1665.74 762.063 1682.3 793.852 1682.3C825.64 1682.3 851.41 1665.74 851.41 1645.31C851.41 1624.87 825.64 1608.31 793.852 1608.31C762.063 1608.31 736.293 1624.87 736.293 1645.31Z" fill="#FFFBEC"/>
<path d="M160.708 1645.31C160.708 1665.74 186.478 1682.3 218.266 1682.3C250.055 1682.3 275.825 1665.74 275.825 1645.31C275.825 1624.87 250.055 1608.31 218.266 1608.31C186.478 1608.31 160.708 1624.87 160.708 1645.31Z" fill="#FFFBEC"/>
<path d="M390.942 1645.31C390.942 1665.74 416.712 1682.3 448.5 1682.3C480.289 1682.3 506.059 1665.74 506.059 1645.31C506.059 1624.87 480.289 1608.31 448.5 1608.31C416.712 1608.31 390.942 1624.87 390.942 1645.31Z" fill="#FFFBEC"/>
<path d="M621.176 1645.31C621.176 1665.74 646.946 1682.3 678.735 1682.3C710.523 1682.3 736.293 1665.74 736.293 1645.31C736.293 1624.87 710.523 1608.31 678.735 1608.31C646.946 1608.31 621.176 1624.87 621.176 1645.31Z" fill="#FFFBEC"/>
<path d="M851.41 1645.31C851.41 1665.74 877.18 1682.3 908.969 1682.3C940.757 1682.3 966.527 1665.74 966.527 1645.31C966.527 1624.87 940.757 1608.31 908.969 1608.31C877.18 1608.31 851.41 1624.87 851.41 1645.31Z" fill="#FFFBEC"/>
<path d="M966.527 87.4111H45.5908L45.5908 1177.76H966.527V87.4111Z" fill="#FFFBEC"/>
<path d="M45.5908 89.4293C45.5908 68.995 71.3606 52.4297 103.149 52.4297C134.938 52.4297 160.708 68.995 160.708 89.4293C160.708 139.792 45.5908 139.792 45.5908 89.4293Z" fill="#FFFBEC"/>
<path d="M275.825 89.4293C275.825 68.995 301.595 52.4297 333.383 52.4297C365.172 52.4297 390.942 68.995 390.942 89.4293C390.942 139.792 275.825 139.792 275.825 89.4293Z" fill="#FFFBEC"/>
<path d="M506.059 89.4293C506.059 68.995 531.829 52.4297 563.617 52.4297C595.406 52.4297 621.176 68.995 621.176 89.4293C621.176 139.788 506.059 139.689 506.059 89.4293Z" fill="#FFFBEC"/>
<path d="M736.293 89.4293C736.293 68.995 762.063 52.4297 793.852 52.4297C825.64 52.4297 851.41 68.995 851.41 89.4293C851.41 139.792 736.293 139.792 736.293 89.4293Z" fill="#FFFBEC"/>
<path d="M160.708 89.4293C160.708 68.995 186.478 52.4297 218.266 52.4297C250.055 52.4297 275.825 68.995 275.825 89.4293C275.825 139.792 160.708 139.792 160.708 89.4293Z" fill="#FFFBEC"/>
<path d="M390.942 89.4293C390.942 68.995 416.712 52.4297 448.5 52.4297C480.289 52.4297 506.059 68.995 506.059 89.4293C506.059 139.792 390.942 139.792 390.942 89.4293Z" fill="#FFFBEC"/>
<path d="M621.176 89.4293C621.176 68.995 646.946 52.4297 678.735 52.4297C710.523 52.4297 736.293 68.995 736.293 89.4293C736.293 139.792 621.176 139.792 621.176 89.4293Z" fill="#FFFBEC"/>
<path d="M851.41 89.4293C851.41 68.995 877.18 52.4297 908.969 52.4297C940.757 52.4297 966.527 68.995 966.527 89.4293C966.527 139.792 851.41 139.792 851.41 89.4293Z" fill="#FFFBEC"/>
</svg>
