<svg width="482" height="482" viewBox="0 0 482 482" fill="none" xmlns="http://www.w3.org/2000/svg">
<path d="M0 344.011C0 419.699 61.3571 481.056 137.045 481.056C178.358 481.056 215.402 462.775 240.528 433.862C265.654 462.775 302.698 481.056 344.011 481.056C419.699 481.056 481.056 419.699 481.056 344.011C481.056 302.698 462.775 265.654 433.862 240.528C462.775 215.402 481.056 178.358 481.056 137.045C481.056 61.3571 419.699 3.05176e-05 344.011 3.05176e-05C302.698 3.05176e-05 265.654 18.2806 240.528 47.1941C215.402 18.2806 178.358 3.05176e-05 137.045 3.05176e-05C61.3571 3.05176e-05 0 61.3571 0 137.045C0 178.358 18.2806 215.402 47.1941 240.528C18.2806 265.654 0 302.698 0 344.011Z" fill="#308754"/>
<circle cx="179.286" cy="228.288" r="16.5" fill="#B6FF98"/>
<circle cx="301.286" cy="228.288" r="16.5" fill="#B6FF98"/>
<path d="M205.788 262.788C205.788 297.288 276.788 297.288 276.788 262.788" stroke="#B6FF98" stroke-width="10" stroke-linecap="round"/>
</svg>
